HIERARCHY
ROOT root
{
	OFFSET 0.000000 0.000000 0.000000
	CHANNELS 6 Xposition Yposition Zposition Zrotation Yrotation Xrotation
	JOINT lhip
	{
		OFFSET 0.058581 -0.082280 -0.017664
		CHANNELS 3 Zrotation Yrotation Xrotation
		JOINT lknee
		{
			OFFSET 0.043451 -0.386469 0.008037
			CHANNELS 3 Zrotation Yrotation Xrotation
			JOINT lankle
			{
				OFFSET -0.014790 -0.426874 -0.037428
				CHANNELS 3 Zrotation Yrotation Xrotation
				JOINT ltoe
				{
					OFFSET 0.041054 -0.060286 0.122042
					CHANNELS 3 Zrotation Yrotation Xrotation
					End Site
					{
						OFFSET 0.000000 0.000000 0.000000
					}
				}
			}
		}
	}
	JOINT rhip
	{
		OFFSET -0.060310 -0.090513 -0.013543
		CHANNELS 3 Zrotation Yrotation Xrotation
		JOINT rknee
		{
			OFFSET -0.043257 -0.383688 -0.004843
			CHANNELS 3 Zrotation Yrotation Xrotation
			JOINT rankle
			{
				OFFSET 0.019056 -0.420046 -0.034562
				CHANNELS 3 Zrotation Yrotation Xrotation
				JOINT rtoe
				{
					OFFSET -0.034840 -0.062106 0.130323
					CHANNELS 3 Zrotation Yrotation Xrotation
					End Site
					{
						OFFSET 0.000000 0.000000 0.000000
					}
				}
			}
		}
	}
	JOINT lowerback
	{
		OFFSET 0.004439 0.124404 -0.038385
		CHANNELS 3 Zrotation Yrotation Xrotation
		JOINT upperback
		{
			OFFSET 0.004488 0.137956 0.026820
			CHANNELS 3 Zrotation Yrotation Xrotation
			JOINT chest
			{
				OFFSET -0.002265 0.056032 0.002855
				CHANNELS 3 Zrotation Yrotation Xrotation
				JOINT lowerneck
				{
					OFFSET -0.013390 0.211636 -0.033468
					CHANNELS 3 Zrotation Yrotation Xrotation
					JOINT upperneck
					{
						OFFSET 0.010113 0.088937 0.050410
						CHANNELS 3 Zrotation Yrotation Xrotation
						End Site
						{
							OFFSET 0.000000 0.000000 0.000000
						}
					}
				}
				JOINT lclavicle
				{
					OFFSET 0.071702 0.114000 -0.018898
					CHANNELS 3 Zrotation Yrotation Xrotation
					JOINT lshoulder
					{
						OFFSET 0.122921 0.045205 -0.019046
						CHANNELS 3 Zrotation Yrotation Xrotation
						JOINT lelbow
						{
							OFFSET 0.255332 -0.015649 -0.022946
							CHANNELS 3 Zrotation Yrotation Xrotation
							JOINT lwrist
							{
								OFFSET 0.265709 0.012698 -0.007375
								CHANNELS 3 Zrotation Yrotation Xrotation
								End Site
								{
									OFFSET 0.000000 0.000000 0.000000
								}
							}
						}
					}
				}
				JOINT rclavicle
				{
					OFFSET -0.082954 0.112472 -0.023707
					CHANNELS 3 Zrotation Yrotation Xrotation
					JOINT rshoulder
					{
						OFFSET -0.113228 0.046853 -0.008472
						CHANNELS 3 Zrotation Yrotation Xrotation
						JOINT relbow
						{
							OFFSET -0.260127 -0.014369 -0.031269
							CHANNELS 3 Zrotation Yrotation Xrotation
							JOINT rwrist
							{
								OFFSET -0.269108 0.006794 -0.006027
								CHANNELS 3 Zrotation Yrotation Xrotation
								End Site
								{
									OFFSET 0.000000 0.000000 0.000000
								}
							}
						}
					}
				}
			}
		}
	}
}
MOTION
Frames: 5
Frame Time: 0.033333
0.078437 1.066068 0.980036 -4.291379 -0.370723 85.190605 10.198784 6.705631 0.037110 -2.683896 9.803909 11.684949 1.082968 15.923763 -19.307965 0.000000 -0.000000 0.000000 -8.273287 -5.682965 -1.046325 0.738868 -3.654818 11.568655 5.014895 -3.233581 -10.424781 0.000000 -0.000000 0.000000 0.753120 0.166025 2.574637 -0.104120 -1.265934 1.637764 -2.909148 -0.393265 0.638947 4.504061 3.403023 -2.742797 -2.178410 -4.821666 22.657601 -34.246162 0.989946 2.110021 -42.585874 -8.952415 12.393620 5.071239 -58.223798 18.391426 5.793703 -15.712582 11.237324 35.663251 4.611281 3.954044 42.506027 8.813010 17.892332 -3.260708 53.156975 14.976773 -7.800742 13.854436 6.825781 
0.078380 1.065855 0.980057 -4.322865 -0.405674 85.223720 10.150431 6.669534 0.056125 -2.729926 9.707876 11.632068 1.212736 16.067706 -19.328409 0.000000 -0.000000 0.000000 -8.300648 -5.553012 -1.074145 0.833950 -3.311951 11.556287 5.263271 -3.665631 -10.506284 0.000000 -0.000000 0.000000 0.791006 0.149417 2.615951 -0.148674 -1.247033 1.466401 -2.969308 -0.312952 0.845405 4.648668 3.539223 -3.297313 -2.227051 -4.700614 23.250946 -33.903700 1.057137 2.243254 -42.955305 -9.158072 12.310537 5.227382 -58.253544 18.743911 5.330979 -15.679146 10.659941 35.507419 4.644361 3.844420 42.806849 8.709246 18.048349 -3.653853 53.270390 15.045318 -7.705993 13.676722 6.363804 
0.078238 1.065538 0.980108 -4.303985 -0.423112 85.200753 10.151185 6.680976 0.069688 -2.756907 9.641152 11.657662 1.299618 16.101134 -19.356245 0.000000 -0.000000 0.000000 -8.310802 -5.514583 -1.066660 0.850303 -3.314050 11.625413 5.244033 -3.728263 -10.585295 0.000000 -0.000000 0.000000 0.806624 0.143395 2.624160 -0.168223 -1.218505 1.443863 -2.985292 -0.313677 0.906088 4.709441 3.593773 -3.320045 -2.192231 -4.611263 23.381065 -33.823945 1.070404 2.234720 -43.026105 -9.197861 12.326869 5.151169 -58.269232 18.861242 5.550263 -15.671110 10.627388 35.420995 4.670114 3.802215 42.929298 8.648902 18.140862 -3.705032 53.249103 15.012480 -7.888263 13.480863 6.103064 
0.078064 1.065211 0.980105 -4.234589 -0.425892 85.161231 10.170435 6.623475 0.082163 -2.759257 9.655186 11.695918 1.255062 16.092936 -19.402471 0.000000 -0.000000 0.000000 -8.306775 -5.501827 -1.017009 0.844347 -3.372341 11.653499 5.174200 -3.742686 -10.603199 0.000000 -0.000000 0.000000 0.868782 0.159339 2.626570 -0.201171 -1.210924 1.455798 -2.995512 -0.338975 0.914901 4.688418 3.470047 -3.272156 -2.219059 -4.723018 23.363751 -33.783370 1.011157 2.364331 -43.102666 -9.214951 12.271680 5.328729 -58.271645 18.745899 5.409205 -15.669560 10.594764 35.346448 4.749182 3.837529 42.995091 8.618303 18.084619 -3.683942 53.181786 15.121892 -7.816446 13.590096 6.139236 
0.078011 1.065061 0.980166 -4.193377 -0.426194 85.130574 10.166840 6.599113 0.109178 -2.743442 9.618599 11.707951 1.235810 16.093475 -19.395036 0.000000 -0.000000 0.000000 -8.308972 -5.494600 -0.964242 0.852764 -3.375833 11.652177 5.169889 -3.788331 -10.613649 0.000000 -0.000000 0.000000 0.912238 0.148309 2.647484 -0.216781 -1.214547 1.456282 -2.994462 -0.335520 0.895564 4.636902 3.432799 -3.219351 -2.226740 -4.746473 23.351674 -33.833701 0.955417 2.437778 -43.087622 -9.185452 12.227325 5.437304 -58.261206 18.649821 5.315014 -15.667279 10.545502 35.337818 4.787371 3.914757 42.978478 8.626688 18.016638 -3.661381 53.163112 15.182348 -7.737606 13.662217 6.216603 
